<mxfile host="65bd71144e">
    <diagram id="j3M1FNOSfK7x_h4azZ2C" name="ページ1">
        <mxGraphModel dx="203" dy="160" grid="1" gridSize="10" guides="1" tooltips="1" connect="1" arrows="1" fold="1" page="1" pageScale="1" pageWidth="827" pageHeight="1169" math="1" shadow="0">
            <root>
                <mxCell id="0"/>
                <mxCell id="1" parent="0"/>
                <mxCell id="2" value="" style="endArrow=oval;html=1;startArrow=none;startFill=0;endFill=0;strokeWidth=2;" edge="1" parent="1">
                    <mxGeometry width="50" height="50" relative="1" as="geometry">
                        <mxPoint x="359.71" y="120" as="sourcePoint"/>
                        <mxPoint x="360" y="100" as="targetPoint"/>
                        <Array as="points"/>
                    </mxGeometry>
                </mxCell>
                <mxCell id="3" value="&lt;font style=&quot;font-size: 16px&quot;&gt;`r_d`&lt;/font&gt;" style="pointerEvents=1;verticalLabelPosition=middle;shadow=0;dashed=0;align=left;html=1;verticalAlign=middle;shape=mxgraph.electrical.resistors.resistor_1;direction=south;strokeWidth=2;labelPosition=right;" vertex="1" parent="1">
                    <mxGeometry x="350" y="200" width="20" height="100" as="geometry"/>
                </mxCell>
                <mxCell id="4" value="" style="pointerEvents=1;fillColor=strokeColor;verticalLabelPosition=bottom;shadow=0;dashed=0;align=center;html=1;verticalAlign=top;shape=mxgraph.electrical.diodes.diode;direction=east;rotation=90;strokeWidth=2;" vertex="1" parent="1">
                    <mxGeometry x="310" y="320" width="100" height="60" as="geometry"/>
                </mxCell>
                <mxCell id="5" value="" style="endArrow=none;html=1;strokeWidth=2;endFill=0;startArrow=oval;startFill=0;" edge="1" parent="1">
                    <mxGeometry width="50" height="50" relative="1" as="geometry">
                        <mxPoint x="360" y="420" as="sourcePoint"/>
                        <mxPoint x="360" y="400" as="targetPoint"/>
                    </mxGeometry>
                </mxCell>
                <mxCell id="6" value="&lt;font style=&quot;font-size: 16px&quot;&gt;`V_J`&lt;/font&gt;" style="verticalLabelPosition=middle;shadow=0;dashed=0;align=left;fillColor=#000000;html=1;verticalAlign=middle;strokeWidth=2;shape=mxgraph.electrical.miscellaneous.monocell_battery;direction=north;labelPosition=right;" vertex="1" parent="1">
                    <mxGeometry x="330" y="120" width="60" height="80" as="geometry"/>
                </mxCell>
                <mxCell id="8" value="`D`" style="text;html=1;strokeColor=none;fillColor=none;align=center;verticalAlign=middle;whiteSpace=wrap;rounded=0;fontSize=16;" vertex="1" parent="1">
                    <mxGeometry x="370" y="335" width="60" height="30" as="geometry"/>
                </mxCell>
            </root>
        </mxGraphModel>
    </diagram>
</mxfile>